Coordinates
version=1
nRows=8
nColumns=40
inDegrees=yes

Units are S.I. units (second, meters, Newtons, ...)
Angles are in degrees.

endheader
time	pelvis_tilt	pelvis_list	pelvis_rotation	pelvis_tx	pelvis_ty	pelvis_tz	hip_flexion_r	hip_adduction_r	hip_rotation_r	knee_angle_r	knee_angle_r_beta	ankle_angle_r	subtalar_angle_r	mtp_angle_r	hip_flexion_l	hip_adduction_l	hip_rotation_l	knee_angle_l	knee_angle_l_beta	ankle_angle_l	subtalar_angle_l	mtp_angle_l	lumbar_extension	lumbar_bending	lumbar_rotation	arm_flex_r	arm_add_r	arm_rot_r	elbow_flex_r	pro_sup_r	wrist_flex_r	wrist_dev_r	arm_flex_l	arm_add_l	arm_rot_l	elbow_flex_l	pro_sup_l	wrist_flex_l	wrist_dev_l
     28.02000000	     -3.20153283	     -5.58905462	      3.34991572	      0.85694619	      0.93504753	      0.52688985	      7.73695902	      5.72679529	    -17.99462581	      9.86267019	      9.86267019	      8.27003906	      5.57251789	     -5.76751991	     31.05521484	    -13.19971197	     -0.01353254	     53.73290629	     53.73290629	     11.95853311	    -18.24654421	     13.91884021	     -8.55901768	      7.22491781	      4.64768110	     25.07091567	    -17.02522637	     -7.69861175	     58.08802970	     44.81609749	      0.00000000	      0.00000000	      1.35404170	     -7.50589281	      6.39905455	     26.51162605	     44.16297419	      0.00000000	      0.00000000
     28.03178571	     -3.35051079	     -5.51733223	      3.64860738	      0.85487549	      0.93459667	      0.52670460	      7.44544679	      5.70172746	    -17.99310610	      9.72504401	      9.72504401	      8.59011557	      5.30323544	     -5.88611752	     32.00548467	    -12.74359835	      0.26346635	     50.84029254	     50.84029254	     12.15234375	    -18.12150826	     13.96927299	     -8.53713044	      7.13070580	      4.79054587	     26.89678610	    -17.37227141	     -7.88614253	     59.37101991	     44.79379912	      0.00000000	      0.00000000	      0.18910284	     -7.42626981	      6.40434204	     26.08985506	     44.15562959	      0.00000000	      0.00000000
     28.04357143	     -3.42067295	     -5.49673015	      4.00928857	      0.85290135	      0.93418026	      0.52646021	      7.03646840	      5.75818194	    -17.95638283	      9.50789640	      9.50789640	      8.84908623	      4.90118202	     -6.08276861	     32.61307464	    -12.26762402	      0.63115755	     47.51770349	     47.51770349	     12.00840687	    -18.03725197	     13.66952151	     -8.64723831	      7.17004571	      4.51050486	     28.60059287	    -17.34576486	     -7.96827676	     61.61524144	     44.73954803	      0.00000000	      0.00000000	     -1.19877158	     -7.46096510	      6.37725149	     25.73788742	     44.16131239	      0.00000000	      0.00000000
     28.05535714	     -3.51655578	     -5.52288851	      4.31928511	      0.85105320	      0.93358953	      0.52626311	      6.63922556	      5.87881790	    -17.85888252	      9.23735397	      9.23735397	      8.96408948	      4.42255996	     -6.67507834	     33.00133320	    -11.90083516	      0.82754345	     43.84998290	     43.84998290	     11.26180816	    -17.81406660	     11.96298595	     -8.75182904	      7.21055278	      4.90617349	     29.57522586	    -18.08201153	     -8.10300092	     64.92504981	     44.68271351	      0.00000000	      0.00000000	     -2.43466816	     -7.44230250	      6.27668241	     26.01965987	     44.23547871	      0.00000000	      0.00000000
     28.06714286	     -3.59814277	     -5.49278139	      4.62106028	      0.84929313	      0.93306040	      0.52593890	      6.27432594	      5.89530998	    -17.89414486	      9.09889122	      9.09889122	      9.27575766	      4.21638419	     -6.81954296	     33.24234379	    -11.40165760	      1.08569004	     40.13346733	     40.13346733	     11.15303159	    -17.33353695	     12.31167770	     -8.78378904	      7.18955905	      4.99950310	     31.32002393	    -18.32638587	     -8.34496507	     66.10452684	     44.66809873	      0.00000000	      0.00000000	     -3.50299471	     -7.42756630	      6.34469015	     25.56196557	     44.22100849	      0.00000000	      0.00000000
     28.07892857	     -3.71757402	     -5.53986113	      4.93849270	      0.84762274	      0.93235833	      0.52559297	      5.95575931	      5.99068998	    -17.98025307	      8.95900254	      8.95900254	      9.58329344	      4.03661684	     -6.97037521	     33.46311213	    -10.99471720	      1.30721251	     36.41905201	     36.41905201	     11.06496797	    -16.49376175	     12.64091057	     -8.77360355	      7.23020646	      5.05784438	     32.96827613	    -18.58536083	     -8.57624826	     67.33454553	     44.64900830	      0.00000000	      0.00000000	     -4.53965646	     -7.36997061	      6.40121965	     25.18584801	     44.20489314	      0.00000000	      0.00000000
     28.09071429	     -3.74575965	     -5.64433503	      5.31988341	      0.84614873	      0.93175111	      0.52510996	      5.47347386	      6.16140401	    -18.18060332	      8.69210740	      8.69210740	      9.79964130	      4.01076194	     -7.25265307	     33.47941126	    -10.58473547	      1.61121451	     32.62337056	     32.62337056	     10.49665173	    -15.73363673	     12.28734993	     -8.85560783	      7.39802135	      4.89116670	     34.29553347	    -18.56848552	     -8.91438220	     69.66768078	     44.61363400	      0.00000000	      0.00000000	     -5.68454546	     -7.38049023	      6.52580495	     24.88004660	     44.20349488	      0.00000000	      0.00000000
     28.10250000	     -3.80735241	     -5.74025165	      5.67068010	      0.84484291	      0.93105060	      0.52461201	      5.04379616	      6.30963359	    -18.38849140	      8.48437776	      8.48437776	     10.06965777	      4.03900362	     -7.50026587	     33.47994267	    -10.25956791	      1.60325255	     28.95696041	     28.95696041	     10.05016314	    -14.38365676	     11.88833988	     -8.89360794	      7.50229538	      5.00741097	     35.42104892	    -18.82491928	     -9.36516532	     71.43783904	     44.60769958	      0.00000000	      0.00000000	     -6.61745328	     -7.39869221	      6.70323078	     24.57308447	     44.20682043	      0.00000000	      0.00000000
